<?xml version="1.0" encoding="iso-8859-1"?>
<!-- Generator: Adobe Illustrator 19.0.0, SVG Export Plug-In . SVG Version: 6.00 Build 0)  -->
<svg version="1.1" id="Layer_1" xmlns="http://www.w3.org/2000/svg" xmlns:xlink="http://www.w3.org/1999/xlink" x="0px" y="0px"
	 viewBox="0 0 512.001 512.001" style="enable-background:new 0 0 512.001 512.001;" xml:space="preserve">
<g>
	<g>
		<path d="M256,133.124c-18.725,0-33.959,15.234-33.959,33.959c0,18.726,15.235,33.959,33.959,33.959s33.959-15.234,33.959-33.959
			C289.959,148.357,274.725,133.124,256,133.124z M256,185.369c-10.082,0-18.286-8.202-18.286-18.286
			c0-10.082,8.203-18.286,18.286-18.286c10.082,0,18.286,8.203,18.286,18.286S266.082,185.369,256,185.369z"/>
	</g>
</g>
<g>
	<g>
		<path d="M347.429,201.005c-12.964,0-23.51,10.547-23.51,23.51s10.546,23.51,23.51,23.51s23.51-10.547,23.51-23.51
			S360.393,201.005,347.429,201.005z M347.429,232.352c-4.322,0-7.837-3.515-7.837-7.837c0-4.322,3.515-7.837,7.837-7.837
			c4.322,0,7.837,3.515,7.837,7.837C355.265,228.837,351.75,232.352,347.429,232.352z"/>
	</g>
</g>
<g>
	<g>
		<path d="M431.02,201.005c-12.964,0-23.51,10.547-23.51,23.51s10.546,23.51,23.51,23.51c12.964,0,23.51-10.547,23.51-23.51
			S443.984,201.005,431.02,201.005z M431.02,232.352c-4.322,0-7.837-3.515-7.837-7.837c0-4.322,3.515-7.837,7.837-7.837
			c4.322,0,7.837,3.515,7.837,7.837C438.857,228.837,435.342,232.352,431.02,232.352z"/>
	</g>
</g>
<g>
	<g>
		<path d="M389.224,159.21c-12.964,0-23.51,10.547-23.51,23.51s10.546,23.51,23.51,23.51s23.51-10.547,23.51-23.51
			S402.189,159.21,389.224,159.21z M389.224,190.556c-4.322,0-7.837-3.515-7.837-7.837s3.515-7.837,7.837-7.837
			s7.837,3.515,7.837,7.837S393.546,190.556,389.224,190.556z"/>
	</g>
</g>
<g>
	<g>
		<path d="M389.224,242.801c-12.964,0-23.51,10.547-23.51,23.51c0,12.963,10.546,23.51,23.51,23.51s23.51-10.547,23.51-23.51
			C412.735,253.348,402.189,242.801,389.224,242.801z M389.224,274.148c-4.322,0-7.837-3.515-7.837-7.837
			c0-4.322,3.515-7.837,7.837-7.837s7.837,3.515,7.837,7.837C397.061,270.632,393.546,274.148,389.224,274.148z"/>
	</g>
</g>
<g>
	<g>
		<path d="M122.775,169.659c-30.249,0-54.857,24.609-54.857,54.857c0,30.248,24.608,54.857,54.857,54.857
			c30.249,0,54.857-24.609,54.857-54.857C177.633,194.267,153.024,169.659,122.775,169.659z M122.775,263.699
			c-21.606,0-39.184-17.577-39.184-39.184s17.577-39.184,39.184-39.184c21.606,0,39.184,17.577,39.184,39.184
			S144.382,263.699,122.775,263.699z"/>
	</g>
</g>
<g>
	<g>
		<path d="M122.775,195.781c-15.845,0-28.735,12.891-28.735,28.735c0,15.844,12.89,28.735,28.735,28.735
			s28.735-12.891,28.735-28.735C151.51,208.672,138.62,195.781,122.775,195.781z M122.775,237.577
			c-7.202,0-13.061-5.859-13.061-13.061c0-7.202,5.859-13.061,13.061-13.061c7.203,0,13.061,5.859,13.061,13.061
			C135.837,231.717,129.978,237.577,122.775,237.577z"/>
	</g>
</g>
<g>
	<g>
		<path d="M511.998,224.79c-0.001-0.092,0.002-0.182,0.002-0.273c0-65.508-51.571-119.195-116.245-122.601v-2.788
			c0-10.082-8.204-18.286-18.286-18.286h-26.122c-10.082,0-18.286,8.203-18.286,18.286v2.614H178.939v-2.614
			c0-10.082-8.203-18.286-18.286-18.286h-26.122c-10.082,0-18.286,8.203-18.286,18.286v2.788C51.571,105.322,0,159.009,0,224.518
			c0,0.091,0.003,0.182,0.003,0.273H0v136.976c0,38.263,31.134,69.392,69.402,69.392c28.949,0,55.116-18.249,65.116-45.409
			l15.267-41.444c14.459-3.237,28.202-9.077,40.707-17.372c5.045,2.972,10.916,4.685,17.182,4.685
			c16.027,0,29.487-11.164,33.037-26.12h30.581c3.549,14.958,17.009,26.12,33.035,26.12c6.266,0,12.138-1.714,17.182-4.685
			c12.505,8.295,26.248,14.135,40.707,17.372l15.266,41.442c10,27.162,36.168,45.411,65.116,45.411
			c38.268,0,69.402-31.129,69.402-69.392V224.79H511.998z M348.735,99.128c0-1.441,1.172-2.612,2.612-2.612h26.122
			c1.44,0,2.612,1.171,2.612,2.612v2.614h-31.347V99.128z M131.918,99.128c0-1.441,1.172-2.612,2.612-2.612h26.122
			c1.44,0,2.612,1.171,2.612,2.612v2.614h-31.347V99.128z M119.81,380.332c-7.741,21.025-27.998,35.152-50.408,35.152
			c-29.626,0-53.729-24.099-53.729-53.718v-77.285c21.051,37.451,61.167,62.812,107.102,62.812c3.132,0,6.243-0.124,9.336-0.355
			L119.81,380.332z M199.837,314.154c-3.788-1.807-6.852-4.871-8.659-8.659h8.659V314.154z M199.837,289.822h-8.659
			c1.807-3.788,4.871-6.852,8.659-8.659V289.822z M215.51,314.154v-8.659h8.659C222.363,309.283,219.298,312.348,215.51,314.154z
			 M215.51,289.822v-8.659c3.788,1.807,6.852,4.871,8.659,8.659H215.51z M304.327,315.944c-10.082,0-18.286-8.203-18.286-18.286
			c0-10.082,8.203-18.286,18.286-18.286s18.286,8.204,18.286,18.286C322.612,307.741,314.409,315.944,304.327,315.944z
			 M496.327,361.765c0,29.621-24.103,53.718-53.729,53.718c-22.41,0-42.667-14.127-50.409-35.155l-12.301-33.392
			c3.092,0.231,6.205,0.355,9.336,0.355c45.935,0,86.052-25.361,107.102-62.812V361.765z M389.226,331.62
			c-20.064,0-39.316-5.47-56.167-15.889c3.307-5.238,5.229-11.433,5.229-18.073c0-18.726-15.235-33.959-33.959-33.959
			c-16.03,0-29.49,11.165-33.038,26.125h-30.579c-3.547-14.959-17.009-26.125-33.037-26.125c-18.725,0-33.959,15.234-33.959,33.959
			c0,6.639,1.923,12.834,5.229,18.073c-16.851,10.419-36.103,15.889-56.167,15.889c-59.057,0-107.102-48.045-107.102-107.102
			c0-59.056,48.045-107.102,107.102-107.102h266.449c59.057,0,107.102,48.045,107.102,107.102S448.282,331.62,389.226,331.62z"/>
	</g>
</g>
<g>
</g>
<g>
</g>
<g>
</g>
<g>
</g>
<g>
</g>
<g>
</g>
<g>
</g>
<g>
</g>
<g>
</g>
<g>
</g>
<g>
</g>
<g>
</g>
<g>
</g>
<g>
</g>
<g>
</g>
</svg>
