<?xml version="1.0" encoding="iso-8859-1"?>
<!-- Generator: Adobe Illustrator 19.0.0, SVG Export Plug-In . SVG Version: 6.00 Build 0)  -->
<svg version="1.1" id="Layer_1" xmlns="http://www.w3.org/2000/svg" xmlns:xlink="http://www.w3.org/1999/xlink" x="0px" y="0px"
	 viewBox="0 0 512.002 512.002" style="enable-background:new 0 0 512.002 512.002;" xml:space="preserve">
<rect x="176.152" y="252.177" style="fill:#FFC674;" width="159.7" height="86.663"/>
<rect x="159.343" y="338.668" style="fill:#9A7BA8;" width="193.306" height="161.848"/>
<ellipse transform="matrix(0.7071 -0.7071 0.7071 0.7071 25.2968 201.5978)" style="fill:#E3A9ED;" cx="255.998" cy="70.263" rx="74.013" ry="37.664"/>
<path style="fill:#FF738D;" d="M282.632,96.894c-28.903,28.903-64.259,40.411-78.968,25.702c-0.062-0.062-0.115-0.132-0.177-0.195
	c-0.063-0.062-0.133-0.115-0.196-0.178c-3.389-3.389-5.349-7.901-6.026-13.174V252.17h117.19V40.293
	C312.618,57.018,301.237,78.288,282.632,96.894z"/>
<path d="M302.462,306.997c-0.757,0-1.505-0.08-2.252-0.23c-0.735-0.149-1.448-0.368-2.148-0.655
	c-0.689-0.287-1.356-0.643-1.976-1.057c-0.632-0.414-1.218-0.896-1.746-1.425c-0.541-0.528-1.011-1.114-1.436-1.746
	c-0.414-0.62-0.77-1.287-1.057-1.988c-0.287-0.689-0.506-1.413-0.655-2.148c-0.149-0.735-0.218-1.494-0.218-2.24
	c0-0.758,0.07-1.505,0.218-2.252c0.149-0.735,0.368-1.448,0.655-2.148c0.287-0.689,0.643-1.356,1.057-1.976
	c0.425-0.632,0.895-1.218,1.436-1.746c0.529-0.529,1.114-1.011,1.746-1.436c0.62-0.414,1.287-0.77,1.976-1.057
	c0.701-0.287,1.413-0.506,2.148-0.655c1.482-0.299,3.01-0.299,4.492,0c0.736,0.149,1.46,0.368,2.148,0.655s1.356,0.643,1.988,1.057
	c0.62,0.425,1.218,0.908,1.746,1.436c0.528,0.529,1.011,1.114,1.425,1.746c0.412,0.62,0.77,1.287,1.057,1.976
	c0.287,0.701,0.504,1.413,0.655,2.148c0.149,0.747,0.229,1.494,0.229,2.252c0,3.022-1.228,5.986-3.366,8.123
	c-0.529,0.529-1.125,1.011-1.746,1.425c-0.633,0.414-1.299,0.77-1.988,1.057s-1.412,0.506-2.148,0.655
	C303.956,306.916,303.209,306.997,302.462,306.997z"/>
<path d="M352.653,327.176h-5.314v-75.005c0-6.345-5.145-11.489-11.489-11.489h-9.905V41.347c1.312-12.663-1.685-23.744-9.486-31.545
	c-19.817-19.814-60.749-8.764-95.216,25.704c-15.236,15.236-26.602,32.771-32.007,49.376c-2.688,8.261-3.799,15.97-3.385,22.904
	c-0.046,0.417-0.075,0.838-0.075,1.266v131.632h-9.627c-6.345,0-11.489,5.144-11.489,11.489v75.005h-5.314
	c-6.345,0-11.489,5.144-11.489,11.489v161.846c0,6.346,5.144,11.489,11.489,11.489h193.306c6.344,0,11.489-5.144,11.489-11.489
	V338.665C364.142,332.32,358.998,327.176,352.653,327.176z M211.087,91.992c4.242-13.033,13.866-27.7,26.406-40.239
	c20.06-20.06,40.779-28.668,53.195-28.668c4.287,0,7.587,1.027,9.523,2.964c4.936,4.936,3.961,18.699-4.85,35.181
	c-0.159,0.294-0.322,0.589-0.485,0.884c-0.277,0.507-0.554,1.012-0.847,1.522c-3.667,6.356-8.309,12.796-13.718,18.943
	c-0.037,0.041-0.072,0.083-0.109,0.124c-0.804,0.911-1.629,1.814-2.466,2.711c-0.141,0.151-0.277,0.301-0.418,0.452
	c-0.919,0.977-1.854,1.945-2.811,2.901c-4.701,4.703-9.703,8.994-14.805,12.746c-8.503,6.254-17.288,11.007-25.434,13.658
	c-0.204,0.067-0.404,0.123-0.608,0.187c-0.43,0.134-0.861,0.272-1.282,0.394c-0.239,0.069-0.47,0.126-0.705,0.191
	c-0.383,0.105-0.766,0.214-1.142,0.308c-0.25,0.063-0.494,0.114-0.741,0.172c-0.353,0.083-0.708,0.17-1.054,0.242
	c-0.259,0.055-0.509,0.098-0.764,0.147c-0.326,0.063-0.656,0.131-0.975,0.185c-0.26,0.044-0.511,0.076-0.766,0.115
	c-0.306,0.046-0.614,0.097-0.912,0.134c-0.257,0.032-0.506,0.053-0.758,0.079c-0.287,0.03-0.577,0.064-0.858,0.087
	c-0.249,0.02-0.489,0.028-0.734,0.041c-0.272,0.015-0.549,0.034-0.816,0.043c-0.241,0.007-0.473,0.002-0.709,0.002
	c-0.257,0-0.518,0.006-0.769-0.001c-0.233-0.007-0.456-0.024-0.684-0.038c-0.241-0.014-0.486-0.023-0.72-0.045
	c-0.221-0.02-0.43-0.051-0.645-0.077c-0.229-0.028-0.461-0.052-0.681-0.087c-0.207-0.033-0.402-0.077-0.602-0.116
	c-0.215-0.043-0.433-0.082-0.64-0.131c-0.191-0.046-0.371-0.102-0.556-0.154c-0.202-0.057-0.407-0.11-0.601-0.175
	c-0.176-0.059-0.339-0.126-0.508-0.192c-0.187-0.072-0.379-0.141-0.557-0.221c-0.16-0.071-0.308-0.151-0.46-0.227
	c-0.172-0.087-0.348-0.171-0.511-0.265c-0.142-0.083-0.275-0.175-0.41-0.263c-0.156-0.102-0.315-0.202-0.462-0.311
	c-0.128-0.095-0.244-0.2-0.364-0.302c-0.14-0.119-0.284-0.236-0.415-0.363c-0.046-0.048-0.091-0.098-0.138-0.146
	c-0.015-0.016-0.031-0.031-0.047-0.047C208.001,110.497,207.774,102.171,211.087,91.992z M208.755,138.674
	c0.223,0.07,0.452,0.13,0.677,0.195c0.318,0.094,0.635,0.192,0.959,0.277c0.253,0.067,0.51,0.124,0.766,0.186
	c0.331,0.08,0.659,0.163,0.995,0.236c0.257,0.055,0.519,0.101,0.779,0.152c0.341,0.067,0.681,0.134,1.028,0.192
	c0.262,0.044,0.527,0.078,0.792,0.117c0.35,0.052,0.701,0.105,1.056,0.148c0.268,0.032,0.54,0.056,0.81,0.084
	c0.36,0.037,0.718,0.075,1.082,0.102c0.272,0.021,0.548,0.034,0.824,0.049c0.368,0.022,0.735,0.044,1.106,0.057
	c0.279,0.009,0.563,0.011,0.844,0.017c0.281,0.005,0.558,0.017,0.842,0.017c0.084,0,0.169-0.006,0.253-0.006
	c0.492-0.002,0.988-0.017,1.487-0.034c0.238-0.008,0.473-0.01,0.712-0.022c0.73-0.034,1.466-0.084,2.209-0.149
	c0.207-0.018,0.417-0.046,0.625-0.067c0.553-0.055,1.108-0.114,1.668-0.185c0.293-0.038,0.591-0.084,0.887-0.126
	c0.483-0.069,0.965-0.14,1.453-0.222c0.321-0.054,0.643-0.113,0.965-0.171c0.473-0.086,0.949-0.178,1.428-0.276
	c0.329-0.067,0.657-0.137,0.987-0.209c0.491-0.108,0.983-0.223,1.478-0.342c0.318-0.077,0.635-0.152,0.955-0.234
	c0.546-0.139,1.095-0.291,1.646-0.445c0.272-0.076,0.542-0.147,0.817-0.226c0.826-0.24,1.657-0.494,2.494-0.766
	c2.076-0.676,4.166-1.444,6.264-2.302c14.688-6.004,29.78-16.373,43.111-29.704l0,0c4.473-4.473,8.542-9.056,12.21-13.686V240.68
	h-94.211V138.674H208.755z M197.266,263.66h117.19h9.905v63.516H187.639v-20.182h80.352c6.344,0,11.489-5.144,11.489-11.489
	s-5.145-11.489-11.489-11.489h-80.352V263.66H197.266z M341.163,489.022H208.755v-80.886c0-6.345-5.144-11.489-11.489-11.489
	c-6.345,0-11.489,5.144-11.489,11.489v80.886h-14.941V350.155h3.393c0.626,0.106,1.265,0.173,1.922,0.173h159.7
	c0.656,0,1.295-0.068,1.922-0.173h3.392v138.868H341.163z"/>
<path d="M197.267,385.158c-0.747,0-1.505-0.08-2.24-0.23c-0.735-0.138-1.459-0.368-2.16-0.655c-0.689-0.287-1.356-0.643-1.976-1.057
	c-0.632-0.414-1.218-0.896-1.746-1.425c-0.529-0.529-1.011-1.114-1.425-1.746c-0.414-0.62-0.77-1.287-1.057-1.988
	c-0.287-0.689-0.517-1.413-0.655-2.148c-0.149-0.735-0.23-1.494-0.23-2.24s0.08-1.505,0.23-2.24c0.138-0.735,0.368-1.459,0.655-2.16
	c0.287-0.689,0.643-1.356,1.057-1.976c0.414-0.632,0.896-1.218,1.425-1.746c0.529-0.529,1.114-1.011,1.746-1.436
	c0.62-0.414,1.287-0.758,1.976-1.046c0.701-0.287,1.425-0.517,2.16-0.655c1.482-0.299,2.999-0.299,4.481,0
	c0.735,0.138,1.459,0.368,2.148,0.655c0.701,0.287,1.367,0.632,1.988,1.046c0.632,0.425,1.218,0.908,1.746,1.436
	c0.529,0.529,1.011,1.114,1.425,1.746c0.414,0.62,0.77,1.287,1.057,1.976c0.287,0.701,0.506,1.425,0.655,2.16s0.23,1.494,0.23,2.24
	s-0.08,1.505-0.23,2.24c-0.149,0.735-0.368,1.459-0.655,2.148c-0.287,0.701-0.643,1.367-1.057,1.988
	c-0.414,0.632-0.896,1.218-1.425,1.746c-0.529,0.528-1.114,1.011-1.746,1.425c-0.62,0.414-1.287,0.77-1.988,1.057
	c-0.689,0.287-1.413,0.517-2.148,0.655C198.772,385.077,198.014,385.158,197.267,385.158z"/>
<g>
</g>
<g>
</g>
<g>
</g>
<g>
</g>
<g>
</g>
<g>
</g>
<g>
</g>
<g>
</g>
<g>
</g>
<g>
</g>
<g>
</g>
<g>
</g>
<g>
</g>
<g>
</g>
<g>
</g>
</svg>
